<svg width="18" height="18" viewBox="0 0 18 18" fill="none" xmlns="http://www.w3.org/2000/svg">
<path d="M10.3398 9.00001L17.7226 1.61726C18.0925 1.24727 18.0925 0.647438 17.7226 0.277488C17.3526 -0.0924962 16.7527 -0.0924962 16.3828 0.277488L9.00001 7.66024L1.61726 0.277488C1.24727 -0.0924962 0.647438 -0.0924962 0.277488 0.277488C-0.092461 0.647473 -0.0924962 1.24731 0.277488 1.61726L7.66024 9.00001L0.277488 16.3828C-0.0924962 16.7527 -0.0924962 17.3526 0.277488 17.7225C0.647473 18.0925 1.24731 18.0925 1.61726 17.7225L9.00001 10.3398L16.3827 17.7225C16.7527 18.0925 17.3526 18.0925 17.7225 17.7225C18.0925 17.3525 18.0925 16.7527 17.7225 16.3828L10.3398 9.00001Z" fill="black"/>
</svg>
